#define close_width 16
#define close_height 16
static unsigned char close_bits[] = {
   0x00, 0x00, 0x00, 0x00, 0x00, 0x00, 0x18, 0x18, 0x30, 0x0c, 0x60, 0x06,
   0xc0, 0x03, 0x80, 0x01, 0x80, 0x01, 0xc0, 0x03, 0x60, 0x06, 0x30, 0x0c,
   0x18, 0x18, 0x00, 0x00, 0x00, 0x00, 0x00, 0x00 };
