#define max_width 16
#define max_height 16
static unsigned char max_bits[] = {
   0x00, 0x00, 0x00, 0x00, 0x00, 0x00, 0x00, 0x00, 0x80, 0x0f, 0x00, 0x0f,
   0x20, 0x0e, 0x60, 0x0c, 0xe0, 0x08, 0xe0, 0x01, 0xe0, 0x03, 0x00, 0x00,
   0x00, 0x00, 0x00, 0x00, 0x00, 0x00, 0x00, 0x00 };
